Coordinates
version=1
nRows=65
nColumns=12
inDegrees=yes

Units are S.I. units (second, meters, Newtons, ...)
Angles are in degrees

endheader
time	SC_y	SC_z	SC_x	AC_y	AC_z	AC_x	GH_y	GH_z	GH_yy	EL_x	PS_y
       0.0              -14.08          27.09          2.182          44.27         0.6904          6.613          95.81          26.13          23.92          56.35          47.24
  0.001222              -14.08          27.09          2.189          44.26         0.6906          6.613          95.78          26.13           23.9          56.36          47.25
  0.002445              -14.08          27.08          2.197          44.26         0.6909          6.614          95.75          26.13          23.87          56.37          47.25
  0.003667              -14.08          27.08          2.205          44.26         0.6911          6.614          95.72          26.12          23.85          56.38          47.26
   0.00489              -14.08          27.07          2.213          44.26         0.6914          6.615          95.68          26.12          23.82           56.4          47.26
  0.006112              -14.08          27.07          2.223          44.26         0.6916          6.615          95.64          26.12          23.79          56.41          47.27
  0.007334              -14.08          27.06          2.233          44.26         0.6919          6.616           95.6          26.12          23.76          56.43          47.27
  0.008557              -14.08          27.06          2.243          44.26         0.6922          6.617          95.56          26.11          23.72          56.44          47.28
  0.009779              -14.08          27.05          2.255          44.26         0.6925          6.617          95.51          26.11          23.69          56.46          47.29
     0.011              -14.08          27.05          2.267          44.26         0.6929          6.618          95.46          26.11          23.65          56.48           47.3
   0.01222              -14.08          27.04           2.28          44.26         0.6933          6.619          95.41           26.1           23.6           56.5           47.3
   0.01345              -14.08          27.03          2.294          44.26         0.6937           6.62          95.35           26.1          23.56          56.52          47.31
   0.01467              -14.08          27.03          2.309          44.25         0.6941          6.621          95.29          26.09          23.51          56.54          47.32
   0.01589              -14.08          27.02          2.325          44.25         0.6946          6.622          95.22          26.09          23.45          56.57          47.33
   0.01711              -14.07          27.01          2.343          44.25         0.6951          6.623          95.15          26.08           23.4           56.6          47.34
   0.01834              -14.07           27.0          2.362          44.25         0.6957          6.624          95.07          26.08          23.33          56.63          47.36
   0.01956              -14.07          26.99          2.383          44.25         0.6963          6.625          94.98          26.07          23.27          56.66          47.37
   0.02078              -14.07          26.98          2.406          44.25         0.6969          6.626          94.89          26.07          23.19           56.7          47.38
     0.022              -14.07          26.97          2.431          44.24         0.6976          6.628          94.79          26.06          23.11          56.73           47.4
   0.02323              -14.07          26.96          2.458          44.24         0.6984           6.63          94.68          26.05          23.02          56.78          47.42
   0.02445              -14.07          26.94          2.488          44.24         0.6993          6.631          94.55          26.04          22.92          56.82          47.44
   0.02567              -14.07          26.92          2.521          44.24         0.7003          6.633          94.42          26.03          22.82          56.87          47.46
   0.02689              -14.07          26.91          2.557          44.23         0.7013          6.636          94.27          26.02           22.7          56.93          47.48
   0.02812              -14.07          26.89          2.597          44.23         0.7025          6.638           94.1          26.01          22.57          56.99          47.51
   0.02934              -14.07          26.87          2.642          44.22         0.7038          6.641          93.92           26.0          22.42          57.06          47.54
   0.03056              -14.06          26.84          2.692          44.22         0.7052          6.644          93.71          25.98          22.26          57.14          47.57
   0.03178              -14.06          26.81          2.748          44.21         0.7068          6.647          93.48          25.97          22.07          57.23           47.6
   0.03301              -14.06          26.78           2.81          44.21         0.7086          6.651          93.23          25.95          21.87          57.33          47.64
   0.03423              -14.06          26.75          2.881           44.2         0.7107          6.655          92.93          25.93          21.64          57.44          47.69
   0.03545              -14.06          26.71          2.962           44.2          0.713           6.66           92.6          25.91          21.37          57.56          47.74
   0.03667              -14.05          26.67          3.054          44.19         0.7157          6.666          92.22          25.88          21.07          57.71           47.8
   0.03789              -14.05          26.61           3.16          44.18         0.7188          6.672          91.79          25.85          20.73          57.87          47.87
   0.03912              -14.05          26.55          3.282          44.17         0.7223           6.68          91.29          25.81          20.33          58.06          47.95
   0.04034              -14.04          26.49          3.423          44.15         0.7264          6.689          90.71          25.77          19.87          58.28          48.04
   0.04156              -14.04          26.41          3.589          44.14         0.7312          6.699          90.02          25.73          19.32          58.54          48.15
   0.04278              -14.03          26.31          3.785          44.12         0.7369          6.711          89.22          25.67          18.69          58.85          48.27
   0.04401              -14.03           26.2          4.017           44.1         0.7436          6.725          88.26           25.6          17.93          59.21          48.42
   0.04523              -14.02          26.06          4.295          44.08         0.7517          6.742          87.12          25.52          17.02          59.65           48.6
   0.04645              -14.01           25.9          4.632          44.05         0.7614          6.762          85.73          25.43          15.92          60.17          48.82
   0.04767               -14.0           25.7          5.044          44.01         0.7734          6.787          84.04          25.31          14.57          60.81          49.08
    0.0489              -13.98          25.45          5.552          43.97         0.7881          6.818          81.95          25.17          12.91          61.61          49.41
   0.05012              -13.96          25.14          6.185          43.91         0.8064          6.857          79.35          24.98          10.84           62.6          49.81
   0.05134              -13.94          24.76          6.983          43.84         0.8295          6.905          76.07          24.76          8.239          63.84          50.33
   0.05256              -13.91          24.26          7.997          43.75         0.8589          6.967           71.9          24.47          4.925          65.42          50.98
   0.05379              -13.88          23.63          9.295          43.63         0.8965          7.046          66.56          24.09         0.6844          67.45          51.81
   0.05501              -13.83          22.82          10.96          43.49         0.9448          7.148          59.71          23.62         -4.758          70.05          52.88
   0.05623              -13.77          21.79          13.09           43.3          1.006          7.278          50.96          23.01         -11.71          73.37          54.25
   0.05745              -13.69          20.49          15.76          43.06          1.084          7.441          39.96          22.24         -20.45          77.55          55.97
   0.05868               -13.6           18.9          19.02          42.77          1.178          7.639          26.55          21.31          -31.1          82.64          58.07
    0.0599              -13.49          17.07           22.8          42.43          1.288           7.87          11.01          20.23         -43.45          88.54          60.49
   0.06112              -13.37          15.08           26.9          42.07          1.407          8.119         -5.823          19.05         -56.82          94.93          63.12
   0.06234              -13.26          13.09          30.99          41.71          1.525          8.369         -22.65          17.88         -70.19          101.3          65.75
   0.06357              -13.15          11.25          34.77          41.37          1.635          8.599         -38.19           16.8         -82.53          107.2          68.18
   0.06479              -13.05          9.666          38.03          41.08          1.729          8.798          -51.6          15.87         -93.18          112.3          70.28
   0.06601              -12.98          8.365           40.7          40.84          1.807          8.961          -62.6           15.1         -101.9          116.5           72.0
   0.06723              -12.92          7.331          42.83          40.66          1.868           9.09         -71.36          14.49         -108.9          119.8          73.37
   0.06846              -12.87          6.521           44.5          40.51          1.917          9.192         -78.21          14.02         -114.3          122.4          74.44
   0.06968              -12.83           5.89           45.8          40.39          1.954          9.271         -83.54          13.64         -118.6          124.4          75.27
    0.0709               -12.8          5.397          46.81           40.3          1.984          9.333         -87.71          13.35         -121.9          126.0          75.92
   0.07212              -12.78           5.01          47.61          40.23          2.007          9.381          -91.0          13.13         -124.5          127.3          76.44
   0.07334              -12.76          4.702          48.24          40.18          2.025           9.42          -93.6          12.94         -126.5          128.3          76.84
   0.07457              -12.75          4.455          48.75          40.13           2.04          9.451         -95.69           12.8         -128.2          129.0          77.17
   0.07579              -12.74          4.255          49.16          40.09          2.052          9.476         -97.38          12.68         -129.6          129.7          77.43
   0.07701              -12.73          4.091           49.5          40.06          2.061          9.497         -98.77          12.59         -130.7          130.2          77.65
   0.07823              -12.72          3.956          49.78          40.04          2.069          9.514         -99.91          12.51         -131.6          130.6          77.83
